<svg xmlns="http://www.w3.org/2000/svg" viewBox="0 0 74.46 74.46"><defs><style>.cls-1{fill:#414042;}.cls-2{fill:#d1d3d4;}.cls-3{fill:#ed1c24;}</style></defs><g id="Layer_2" data-name="Layer 2"><g id="Layer_1-2" data-name="Layer 1"><circle class="cls-1" cx="37.23" cy="37.23" r="37.23"/><path class="cls-2" d="M28.3,51.43v-2a12,12,0,0,1-6.86,2.14,12.12,12.12,0,0,1,0-24.24,12,12,0,0,1,6.86,2.14V15.23h9.38Z"/><polygon class="cls-3" points="63.14 59.11 63.14 59.23 51.09 59.23 51.09 37.57 47.3 42.67 48.7 46.51 45.88 46.51 45.16 45.54 44.44 46.51 41.62 46.51 43.02 42.67 39.22 37.57 39.22 59.23 27.17 59.23 27.17 59.11 38.02 17.23 45.16 36.8 52.29 17.23 63.14 59.11"/><polygon class="cls-3" points="37.24 37.17 37.24 37.29 37.22 37.29 37.24 37.17"/></g></g></svg>